PathFileType	4	(X/Y/Z)	C:/Users/beibeiliu/ov580/test_trc/User1\sequence.28_training_dense_right.trc
DataRate	CameraRate	NumFrames	NumMarkers	Units	OrigDataRate	OrigDataStartFrame	OrigNumFrames
120	120	12	19	mm	120	92	243
Frame#	Time	ThumbCMC			ThumbMCP			ThumbIP			ThumbTip			IndexMCP			IndexPIP			IndexTip			MiddleMCP			MiddlePIP			MiddleTip			RingMCP			RingPIP			RingTip			PinkyMCP			PinkyPIP			PinkyTip			BackHand1			BackHand2			BackHand3	
		X0	Y0	Z0	X1	Y1	Z1	X2	Y2	Z2	X3	Y3	Z3	X4	Y4	Z4	X5	Y5	Z5	X6	Y6	Z6	X7	Y7	Z7	X8	Y8	Z8	X9	Y9	Z9	X10	Y10	Z10	X11	Y11	Z11	X12	Y12	Z12	X13	Y13	Z13	X14	Y14	Z14	X15	Y15	Z15	X16	Y16	Z16	X17	Y17	Z17	X18	Y18	Z18	
91	0.758333	203.046	-28.5318	58.2017	186.581	-26.8535	16.1596	172.635	-37.8045	-2.93279	155.783	-50.74	-22.2082	215.211	-92.9548	7.36214	207.791	-99.995	-23.8517	192.571	-90.5828	-47.3705	198.786	-114.063	16.8228	195.741	-130.416	-15.3697	184.12	-129.287	-45.386	172.786	-111.121	13.0618	158.024	-102.102	-18.886	154.249	-72.476	-22.8889	143.103	-102.88	33.2559	135.807	-112.964	11.9663	132.248	-123.497	-6.28646	178.037	-88.9184	68.4561	173.779	-70.7131	100.437	208.049	-64.3444	78.5485	
92	0.766667	203.766	-28.3847	56.0092	184.149	-27.9613	20.5104	172.876	-36.8184	-5.02623	155.428	-52.4585	-17.9137	217.112	-91.4254	6.48428	208.329	-100.745	-24.0196	191.18	-91.4166	-47.183	198.853	-113.911	16.8211	196.95	-128.462	-14.7464	180.956	-129.303	-42.4471	172.589	-109.712	12.9397	159.348	-105.575	-16.333	149.797	-69.0747	-22.1653	142.838	-105.049	30.1516	138.391	-112.002	15.6819	132.442	-125.017	-7.96761	176.432	-88.1164	69.8637	171.759	-70.7428	101.718	205.856	-64.0587	77.4121	
93	0.775	203.155	-28.28	57.5084	184.464	-24.6572	19.3715	173.255	-40.7814	-6.36128	154.892	-51.339	-22.7239	216.402	-91.1853	7.59362	210.539	-100.428	-21.4199	189.734	-92.0132	-47.2328	200.648	-111.697	17.5503	192.697	-129.97	-15.0755	181.831	-126.661	-46.3054	171.457	-110.197	12.5505	159.998	-105.201	-15.994	152.881	-75.9011	-25.579	144.517	-103.941	31.454	135.849	-113.908	15.7254	131.253	-125.631	-7.25404	174.984	-90.1448	69.1459	175.053	-67.8057	101.34	207.955	-67.6625	76.2669	
94	0.783333	201.004	-25.8175	60.5499	184.632	-22.6417	21.5234	173.571	-38.0985	-6.59614	154.16	-54.4838	-19.8261	213.515	-92.0406	7.47621	206.75	-101.327	-22.7086	195.092	-93.2168	-47.4426	199.162	-113.043	16.2533	193.49	-127.776	-15.965	180.131	-124.041	-47.6074	170.627	-112.09	13.9389	158.322	-107.523	-15.3561	147.681	-79.8774	-27.5353	147.61	-102.21	33.2457	138.481	-113.803	15.0218	131.128	-128.047	-8.28929	174.556	-88.253	69.185	173.117	-72.6245	97.6087	208.524	-64.3225	79.6387	
95	0.791667	203.41	-25.3287	57.7164	186.473	-21.6726	19.7147	173.865	-38.2775	-7.83446	156.761	-52.0739	-17.5838	217.161	-90.0681	9.17854	207.773	-101.83	-21.0413	195.417	-94.3513	-46.2773	195.99	-112.023	17.5982	194.21	-126.226	-15.6194	178.465	-121.317	-46.1496	173.352	-111.263	16.8339	161.997	-111.84	-14.8261	149.481	-87.4022	-31.8714	147.18	-104.523	32.6031	136.117	-115.498	14.2757	131.095	-126.907	-5.12671	178.132	-88.114	70.5846	174.432	-72.8541	99.4535	205.719	-67.8666	76.4293	
96	0.8	204.591	-24.7707	57.1085	185.478	-26.1848	20.8656	175.364	-34.7866	-3.63054	157.859	-49.1537	-20.4661	218.575	-90.0077	8.19505	212.605	-100.784	-19.0517	192.773	-96.8087	-44.0267	199.678	-112.858	11.0168	190.507	-124.459	-17.9085	179.246	-116.07	-46.9798	171.591	-112.239	18.8332	161.967	-115.481	-16.8671	153.83	-95.4462	-37.9928	143.876	-105.205	36.0824	139.721	-116.21	13.2166	132.644	-129.928	-2.16996	178.723	-85.8477	70.9681	177.417	-71.9385	98.4189	207.066	-64.1228	79.417	
97	0.808333	203.261	-22.8967	57.1678	185.879	-23.7131	23.1706	177.324	-29.067	-4.94864	159.919	-45.7688	-20.8606	215.932	-89.818	9.88372	209.606	-99.8842	-19.1458	193.236	-94.8542	-44.9969	200.101	-111.218	9.88607	193.249	-119.317	-19.7946	175.299	-108.152	-50.0621	173.37	-113.98	16.0759	163.335	-120.041	-11.6416	151.258	-105.394	-36.5357	148.192	-105.142	34.4895	136.298	-118.315	15.3025	131.841	-132.214	-5.01935	177.179	-87.9535	69.4167	177.255	-73.4479	99.26	208.004	-63.7057	77.0948	
98	0.816667	201.991	-19.8702	60.4527	184.929	-17.5096	24.5827	176.398	-28.536	-1.35118	160.923	-40.7035	-24.1397	215.225	-88.4962	10.5181	207.7	-100.096	-17.8806	195.599	-92.9632	-47.1718	197.168	-109.9	10.6013	189.009	-116.181	-23.5585	175.185	-101.783	-48.2481	173.859	-111.695	20.1559	166.396	-120.168	-10.2258	154.727	-108.654	-34.9964	145.374	-105.121	38.4607	142.547	-118.73	14.2363	136.496	-129.853	-5.73728	179.423	-84.3471	71.0273	175.083	-71.1378	102.236	208.8	-62.4451	75.1941	
99	0.825	202.373	-21.0448	59.4794	183.858	-18.9659	25.0973	176.7	-27.9184	-4.18248	162.002	-37.7179	-26.1054	217.898	-85.5334	9.09893	211.822	-97.5091	-17.7503	193.369	-90.7894	-46.6442	199.816	-107.084	8.48678	188.915	-112.176	-22.0812	172.519	-92.8455	-48.1216	175.516	-112.235	18.3109	165.225	-120.655	-11.9178	152.682	-108.905	-35.3554	146.473	-108.183	37.2331	138.913	-120.389	18.2643	138.74	-132.71	-5.36551	177.831	-86.4023	68.8166	173.983	-73.1373	102.125	206.65	-61.0749	76.4639	
100	0.833333	200.461	-21.6401	60.5786	185.229	-16.2756	23.7012	176.264	-23.0381	-2.35863	163.033	-37.8858	-22.422	215.195	-86.9675	9.64746	210.434	-97.9609	-21.1745	193.119	-91.2334	-43.546	196.747	-105.529	8.53098	185.398	-108.749	-24.9006	168.863	-86.6357	-45.2046	176.111	-112.373	20.9341	169.11	-120.995	-12.0905	153.809	-106.105	-37.8902	149.973	-106.233	38.6796	145.577	-120.376	20.1326	138.489	-133.653	-3.43693	180.061	-83.9071	69.9251	173.936	-73.4329	100.989	206.968	-62.7038	77.522	
101	0.841667	202.096	-21.4103	57.2594	183.975	-20.0894	23.8624	177.738	-24.6453	-5.9399	164.003	-31.2866	-24.1409	219.247	-85.7332	6.7594	212.01	-96.0381	-20.2889	191.421	-88.021	-46.3694	197.131	-105.503	6.18336	187.312	-105.057	-24.4134	166.12	-77.3792	-44.2542	180.192	-111.681	19.1295	170.097	-119.872	-11.643	156.273	-105.477	-36.0317	152.98	-105.006	38.891	146.213	-122.088	19.4422	142.799	-136.748	-2.11681	178.356	-83.2973	72.9506	176.07	-69.3554	101.375	205.716	-62.8274	77.5142	
102	0.85	199.538	-22.553	59.9653	184.444	-17.384	24.1039	177.36	-24.6211	-5.76553	163.331	-33.2037	-21.3613	217.207	-84.5391	9.37433	209.766	-96.0671	-19.1257	191.098	-87.3152	-45.0514	197.342	-103.86	8.02907	183.755	-102.863	-26.3864	161.155	-72.8869	-40.2077	178.044	-111.298	21.5159	171.382	-119.823	-10.6636	156.612	-106.185	-34.7945	153.494	-109.109	38.3739	147.08	-123.721	22.7855	143.237	-138.835	2.69639	181.935	-86.2642	69.4135	176.248	-70.9143	103.711	205.588	-62.2291	78.4153	
